<svg version="1.1" id="Layer_1" xmlns="http://www.w3.org/2000/svg" xmlns:xlink="http://www.w3.org/1999/xlink" x="0px" y="0px"
	 width="100%" viewBox="0 0 500 500" enable-background="new 0 0 500 500" xml:space="preserve">
<path fill="#034FAF" opacity="1.000000" stroke="none" 
	d="
M470.000000,1.000000 
	C480.325287,1.000000 490.650574,1.000000 500.957031,1.000000 
	C500.957031,167.666672 500.957031,334.333344 500.957031,501.000000 
	C490.921814,501.000000 480.929565,501.000000 470.468658,500.531342 
	C470.000000,333.708466 470.000000,167.354233 470.000000,1.000000 
z"/>
<path fill="#5ADBE4" opacity="1.000000" stroke="none" 
	d="
M30.000000,501.000000 
	C20.340918,501.000000 10.681836,501.000000 1.042268,501.000000 
	C1.042268,334.333313 1.042268,167.666656 1.042268,1.000000 
	C10.410584,1.000000 19.736633,1.000000 29.531322,1.468657 
	C29.999973,168.291550 29.999987,334.645782 30.000000,501.000000 
z"/>
<path fill="#0958B2" opacity="1.000000" stroke="none" 
	d="
M469.531342,1.000000 
	C470.000000,167.354233 470.000000,333.708466 470.000000,500.531342 
	C460.979095,501.000000 451.958221,501.000000 442.468658,500.531342 
	C442.000000,333.708466 442.000000,167.354233 442.000000,1.000000 
	C451.020905,1.000000 460.041779,1.000000 469.531342,1.000000 
z"/>
<path fill="#1267B8" opacity="1.000000" stroke="none" 
	d="
M390.000000,1.000000 
	C398.687561,1.000000 407.375122,1.000000 416.531342,1.468657 
	C417.000000,168.291550 417.000000,334.645782 417.000000,501.000000 
	C409.645752,501.000000 402.291504,501.000000 394.468628,500.531342 
	C394.000000,433.899323 394.019287,367.735901 393.915344,301.572693 
	C393.911896,299.379395 392.658997,297.188019 392.070068,294.533325 
	C392.169678,277.195587 392.245209,260.319824 392.109406,243.445740 
	C392.096985,241.903259 390.731232,240.371658 389.995422,238.376694 
	C389.997925,158.945587 389.998962,79.972794 390.000000,1.000000 
z"/>
<path fill="#0D5FB5" opacity="1.000000" stroke="none" 
	d="
M417.468628,501.000000 
	C417.000000,334.645782 417.000000,168.291550 417.000000,1.468657 
	C425.020905,1.000000 433.041809,1.000000 441.531372,1.000000 
	C442.000000,167.354233 442.000000,333.708466 442.000000,500.531342 
	C433.979095,501.000000 425.958191,501.000000 417.468628,501.000000 
z"/>
<path fill="#55D3E1" opacity="1.000000" stroke="none" 
	d="
M30.468624,501.000000 
	C29.999987,334.645782 29.999973,168.291550 29.999981,1.468657 
	C37.354252,1.000000 44.708500,1.000000 52.531403,1.468657 
	C53.000038,168.291550 53.000019,334.645782 53.000000,501.000000 
	C45.645748,501.000000 38.291496,501.000000 30.468624,501.000000 
z"/>
<path fill="#51CDDF" opacity="1.000000" stroke="none" 
	d="
M53.468624,501.000000 
	C53.000019,334.645782 53.000038,168.291550 53.000031,1.468657 
	C60.354252,1.000000 67.708504,1.000000 75.531380,1.468657 
	C76.000000,168.291550 76.000000,334.645782 76.000000,501.000000 
	C68.645752,501.000000 61.291500,501.000000 53.468624,501.000000 
z"/>
<path fill="#4DC6DC" opacity="1.000000" stroke="none" 
	d="
M76.468582,501.000000 
	C76.000000,334.645782 76.000000,168.291550 76.000000,1.468657 
	C83.020950,1.000000 90.041893,1.000000 97.531418,1.468657 
	C98.000000,168.291550 98.000000,334.645782 98.000000,501.000000 
	C90.979050,501.000000 83.958107,501.000000 76.468582,501.000000 
z"/>
<path fill="#2E95C9" opacity="1.000000" stroke="none" 
	d="
M265.000000,501.000000 
	C258.312347,501.000000 251.624710,501.000000 244.468536,500.531342 
	C244.000000,463.418091 244.017014,426.773499 243.994812,390.128906 
	C243.975739,358.648865 243.911865,327.168793 243.900146,295.246521 
	C243.899231,290.870026 243.865982,286.935730 243.850662,282.748810 
	C243.580872,282.397583 243.293167,282.299011 242.670959,282.137634 
	C241.889633,282.005005 241.442795,281.935211 240.996933,281.405212 
	C240.998611,187.629990 240.999298,94.314995 241.000000,1.000000 
	C246.688034,1.000000 252.376083,1.000000 258.558350,1.420501 
	C259.368408,4.806678 259.957184,7.772117 259.959778,10.738066 
	C260.013184,72.213722 260.043457,133.689529 259.926758,195.165024 
	C259.916107,200.775253 258.332611,206.392715 258.426422,211.990936 
	C258.657349,225.770264 259.410370,239.541718 260.041656,253.312271 
	C260.114441,254.899673 260.744934,256.461487 261.065186,258.464172 
	C258.863800,268.319214 260.409424,277.038116 265.840332,285.366089 
	C265.449921,288.218201 265.029694,290.686066 265.028442,293.154083 
	C264.993042,362.436066 265.000000,431.718018 265.000000,501.000000 
z"/>
<path fill="#49C0DA" opacity="1.000000" stroke="none" 
	d="
M98.468399,501.000000 
	C98.000000,334.645782 98.000000,168.291550 98.000000,1.468657 
	C104.021156,1.000000 110.042305,1.000000 116.531731,1.468657 
	C117.000000,165.164719 116.994431,328.392120 117.041672,491.619537 
	C117.042580,494.746460 117.666664,497.873169 118.000000,501.000000 
	C111.645599,501.000000 105.291206,501.000000 98.468399,501.000000 
z"/>
<path fill="#46BBD8" opacity="1.000000" stroke="none" 
	d="
M118.466858,501.000000 
	C117.666664,497.873169 117.042580,494.746460 117.041672,491.619537 
	C116.994431,328.392120 117.000000,165.164719 117.000000,1.468657 
	C121.356903,1.000000 125.713806,1.000000 130.535355,1.468657 
	C130.999237,68.270927 130.998489,134.604538 130.779816,201.292511 
	C130.519089,218.931534 130.444473,236.216309 130.501160,253.500626 
	C130.505173,254.724472 131.475616,255.945129 131.997498,257.625305 
	C131.998001,266.010712 131.997711,273.938019 131.548752,281.941467 
	C128.066925,282.078888 125.033775,282.140137 121.744614,282.159180 
	C121.382370,282.410126 121.276131,282.703278 121.097229,283.455444 
	C121.024582,287.764618 121.024582,291.614777 121.024582,295.988525 
	C125.848984,295.988525 129.924606,295.988525 134.000122,296.457916 
	C134.000000,364.951538 134.000000,432.975769 134.000000,501.000000 
	C128.977905,501.000000 123.955818,501.000000 118.466858,501.000000 
z"/>
<path fill="#217FC1" opacity="1.000000" stroke="none" 
	d="
M336.000000,501.000000 
	C328.979034,501.000000 321.958099,501.000000 314.468567,500.531342 
	C314.000000,487.258057 314.000031,474.453461 314.000000,461.648834 
	C313.999969,405.607880 314.022949,349.566895 313.913635,293.526154 
	C313.909393,291.344574 312.637268,289.165527 312.120972,286.680420 
	C314.328491,282.506927 316.370972,278.638336 318.706055,274.215515 
	C315.261688,274.043457 313.126892,273.936798 310.993896,273.377563 
	C310.994537,268.671600 310.993408,264.418243 311.405273,260.094055 
	C313.686493,260.023254 315.554688,260.023254 317.302734,260.023254 
	C317.151306,258.052734 317.039551,256.598633 317.097107,254.751511 
	C317.510864,252.418411 317.953461,250.479691 317.966736,248.538025 
	C318.037506,238.174454 318.000946,227.810120 318.460480,217.352692 
	C324.611053,217.322205 330.302643,217.385101 335.994324,217.888565 
	C335.996246,312.552765 335.998108,406.776398 336.000000,501.000000 
z"/>
<path fill="#1770BB" opacity="1.000000" stroke="none" 
	d="
M389.531342,1.000000 
	C389.998962,79.972794 389.997925,158.945587 389.539551,238.439453 
	C386.146790,238.960541 383.211426,238.960541 379.696777,238.960541 
	C379.696777,243.295486 379.696838,247.058762 379.696808,250.822052 
	C379.696716,261.220490 379.696686,261.220490 369.066101,259.782227 
	C369.424622,256.916229 369.941956,254.479660 369.960724,252.039246 
	C370.049500,240.509979 370.001862,228.979660 370.460266,217.357971 
	C375.160187,217.266220 379.402771,217.266220 383.658478,217.266220 
	C383.658478,212.412796 383.658478,208.368774 383.658478,203.801971 
	C376.875397,203.801971 370.434357,203.801971 363.994507,203.345734 
	C363.997131,135.592987 363.998566,68.296494 364.000000,1.000000 
	C372.354218,1.000000 380.708466,1.000000 389.531342,1.000000 
z"/>
<path fill="#298DC6" opacity="1.000000" stroke="none" 
	d="
M265.468658,501.000000 
	C265.000000,431.718018 264.993042,362.436066 265.028442,293.154083 
	C265.029694,290.686066 265.449921,288.218201 266.130249,285.545654 
	C272.419342,293.203094 280.561279,296.102661 290.084045,296.622406 
	C290.449860,299.643341 290.963318,302.270264 290.965088,304.897552 
	C291.009552,370.265015 291.000000,435.632507 291.000000,501.000000 
	C282.645782,501.000000 274.291534,501.000000 265.468658,501.000000 
z"/>
<path fill="#3CABD2" opacity="1.000000" stroke="none" 
	d="
M166.000000,1.000000 
	C172.687637,1.000000 179.375290,1.000000 186.452942,1.410375 
	C186.561981,4.617631 186.036774,7.414394 186.035416,10.211412 
	C185.991425,100.762726 185.997910,191.314056 185.534256,281.939728 
	C179.380035,281.964264 173.688416,281.914459 167.997559,281.404724 
	C167.997711,266.020691 167.997086,251.096588 168.303696,235.995911 
	C177.614029,225.940323 175.478592,210.339920 165.063187,203.634567 
	C165.426895,200.423538 165.961563,197.626572 165.963608,194.829208 
	C166.010742,130.219513 166.000000,65.609749 166.000000,1.000000 
z"/>
<path fill="#1D78BF" opacity="1.000000" stroke="none" 
	d="
M336.468536,501.000000 
	C335.998108,406.776398 335.996246,312.552765 336.454529,217.794556 
	C342.937256,217.322388 348.959747,217.384827 354.985657,217.886475 
	C354.991272,225.162109 354.993439,231.998489 354.541931,238.899826 
	C351.168823,238.964767 348.249420,238.964767 344.993958,238.964767 
	C344.993958,248.759277 344.993958,257.852386 344.993958,266.945496 
	C344.993958,276.171570 344.993958,285.397675 344.993958,294.885162 
	C349.396179,294.885162 353.177338,294.885162 356.968201,295.360931 
	C356.985260,364.224457 356.992645,432.612244 357.000000,501.000000 
	C350.312347,501.000000 343.624725,501.000000 336.468536,501.000000 
z"/>
<path fill="#39A6D0" opacity="1.000000" stroke="none" 
	d="
M185.996857,281.865387 
	C185.997910,191.314056 185.991425,100.762726 186.035416,10.211412 
	C186.036774,7.414394 186.561981,4.617631 186.921478,1.410375 
	C192.354935,1.000000 197.709854,1.000000 203.532394,1.468657 
	C203.998825,68.236511 203.997650,134.535706 203.573059,200.904449 
	C200.190536,200.558395 200.099136,202.379333 200.110687,204.599152 
	C200.171814,216.344879 200.138535,228.091095 200.138138,239.837143 
	C200.137939,245.415482 200.138092,250.993820 200.138092,257.166443 
	C203.449600,257.166443 206.221390,257.166443 208.994888,257.624512 
	C208.995865,266.010223 208.995117,273.937927 208.531021,281.937988 
	C200.710739,281.962036 193.353790,281.913696 185.996857,281.865387 
z"/>
<path fill="#2585C4" opacity="1.000000" stroke="none" 
	d="
M291.468628,501.000000 
	C291.000000,435.632507 291.009552,370.265015 290.965088,304.897552 
	C290.963318,302.270264 290.449860,299.643341 290.503235,296.534668 
	C299.122772,295.941742 305.827545,292.134857 311.955933,286.985291 
	C312.637268,289.165527 313.909393,291.344574 313.913635,293.526154 
	C314.022949,349.566895 313.999969,405.607880 314.000000,461.648834 
	C314.000031,474.453461 314.000000,487.258057 314.000000,500.531342 
	C306.645752,501.000000 299.291504,501.000000 291.468628,501.000000 
z"/>
<path fill="#329BCC" opacity="1.000000" stroke="none" 
	d="
M240.531586,1.000000 
	C240.999298,94.314995 240.998611,187.629990 240.537354,281.477600 
	C235.717545,281.962036 231.358337,281.913879 226.999359,281.405792 
	C226.999481,273.019501 226.999359,265.093170 227.448364,257.096924 
	C230.925705,256.972534 233.953888,256.917999 237.247803,256.878357 
	C237.617020,256.590485 237.720505,256.287720 237.873581,255.533554 
	C237.923187,252.207291 237.923187,249.332428 237.923187,246.335815 
	C234.500107,246.176025 231.749908,246.047653 228.999817,245.466156 
	C228.999969,241.394913 229.000000,237.776749 229.435593,234.087433 
	C231.131851,234.016281 232.392548,234.016281 233.721222,234.016281 
	C233.721222,230.361343 233.721222,227.283539 233.721222,224.165787 
	C231.961868,224.041794 230.480957,223.937408 229.000031,223.385513 
	C229.000061,219.347641 229.000107,215.757278 229.436050,212.097443 
	C237.783203,211.955368 238.402496,210.931183 236.251755,200.835114 
	C231.236481,200.835114 226.116364,200.835114 220.997192,200.376801 
	C220.998749,133.612320 220.999374,67.306160 221.000000,1.000000 
	C227.354401,1.000000 233.708786,1.000000 240.531586,1.000000 
z"/>
<path fill="#1972BC" opacity="1.000000" stroke="none" 
	d="
M357.468262,501.000000 
	C356.992645,432.612244 356.985260,364.224457 356.982758,294.900024 
	C356.987640,286.903931 356.987640,279.844513 356.987640,272.743286 
	C364.149750,272.743286 370.579895,272.743286 377.007690,273.184204 
	C376.670258,290.986664 376.082184,308.347717 376.046143,325.709869 
	C375.924835,384.139709 376.000000,442.569916 376.000000,501.000000 
	C369.978851,501.000000 363.957703,501.000000 357.468262,501.000000 
z"/>
<path fill="#3BAAD1" opacity="1.000000" stroke="none" 
	d="
M192.000000,501.000000 
	C185.312363,501.000000 178.624710,501.000000 171.468536,500.531342 
	C171.000107,432.037842 171.000198,364.012970 171.458786,295.883545 
	C178.611603,295.848572 185.305954,295.918182 192.000153,296.457214 
	C192.000015,364.951080 192.000015,432.975555 192.000000,501.000000 
z"/>
<path fill="#40B2D5" opacity="1.000000" stroke="none" 
	d="
M165.531464,1.000000 
	C166.000000,65.609749 166.010742,130.219513 165.963608,194.829208 
	C165.961563,197.626572 165.426895,200.423538 164.675995,203.568115 
	C157.806564,202.888687 151.401474,201.861847 144.997314,200.376709 
	C144.998840,133.612259 144.999420,67.306129 145.000000,1.000000 
	C151.687637,1.000000 158.375290,1.000000 165.531464,1.000000 
z"/>
<path fill="#1B76BE" opacity="1.000000" stroke="none" 
	d="
M363.531616,1.000000 
	C363.998566,68.296494 363.997131,135.592987 363.530640,203.412292 
	C356.375488,203.891251 349.685394,203.847382 343.026093,203.395508 
	C343.371246,200.027710 343.957581,197.068130 343.959991,194.108078 
	C344.012512,129.738754 344.000000,65.369370 344.000000,1.000000 
	C350.354401,1.000000 356.708801,1.000000 363.531616,1.000000 
z"/>
<path fill="#38A4CF" opacity="1.000000" stroke="none" 
	d="
M192.468277,501.000000 
	C192.000015,432.975555 192.000015,364.951080 192.458557,296.353455 
	C198.944687,295.849792 204.972290,295.919373 210.999939,296.458313 
	C211.000000,364.951782 211.000000,432.975891 211.000000,501.000000 
	C204.978851,501.000000 198.957703,501.000000 192.468277,501.000000 
z"/>
<path fill="#3FB0D4" opacity="1.000000" stroke="none" 
	d="
M171.000305,295.988129 
	C171.000198,364.012970 171.000107,432.037842 171.000000,500.531342 
	C164.978851,501.000000 158.957703,501.000000 152.468277,500.531342 
	C152.000092,432.038208 152.000183,364.013702 152.458389,295.884277 
	C158.944443,295.848907 164.972382,295.918518 171.000305,295.988129 
z"/>
<path fill="#2282C2" opacity="1.000000" stroke="none" 
	d="
M306.000000,1.000000 
	C312.021149,1.000000 318.042297,1.000000 324.531738,1.468657 
	C324.998627,69.235977 324.997253,136.534653 324.531738,203.898697 
	C317.710236,203.920532 311.352875,203.876968 305.026123,203.423523 
	C305.371124,200.053268 305.957581,197.093140 305.959991,194.132507 
	C306.012512,129.755035 306.000000,65.377510 306.000000,1.000000 
z"/>
<path fill="#1F7CC0" opacity="1.000000" stroke="none" 
	d="
M324.995880,203.833313 
	C324.997253,136.534653 324.998627,69.235977 325.000000,1.468657 
	C331.021149,1.000000 337.042297,1.000000 343.531738,1.000000 
	C344.000000,65.369370 344.012512,129.738754 343.959991,194.108078 
	C343.957581,197.068130 343.371246,200.027710 342.562775,203.463806 
	C336.377747,203.904495 330.686829,203.868912 324.995880,203.833313 
z"/>
<path fill="#2688C4" opacity="1.000000" stroke="none" 
	d="
M305.531738,1.000000 
	C306.000000,65.377510 306.012512,129.755035 305.959991,194.132507 
	C305.957581,197.093140 305.371124,200.053268 304.562439,203.489227 
	C298.377594,203.920944 292.686951,203.877060 286.997192,203.374985 
	C286.998718,135.611191 286.999359,68.305595 287.000000,1.000000 
	C293.021149,1.000000 299.042297,1.000000 305.531738,1.000000 
z"/>
<path fill="#166DBA" opacity="1.000000" stroke="none" 
	d="
M376.467957,501.000000 
	C376.000000,442.569916 375.924835,384.139709 376.046143,325.709869 
	C376.082184,308.347717 376.670258,290.986664 377.431335,273.116882 
	C378.473511,274.265350 379.555817,275.903931 379.621033,277.582062 
	C379.842896,283.289795 379.705841,289.011505 379.705841,294.995758 
	C384.391479,294.995758 388.190002,294.995758 391.988525,294.995758 
	C392.658997,297.188019 393.911896,299.379395 393.915344,301.572693 
	C394.019287,367.735901 394.000000,433.899323 394.000000,500.531342 
	C388.311951,501.000000 382.623932,501.000000 376.467957,501.000000 
z"/>
<path fill="#43B6D6" opacity="1.000000" stroke="none" 
	d="
M152.000259,295.989227 
	C152.000183,364.013702 152.000092,432.038208 152.000000,500.531342 
	C146.311966,501.000000 140.623917,501.000000 134.467941,501.000000 
	C134.000000,432.975769 134.000000,364.951538 134.457794,296.352325 
	C140.610458,295.847961 146.305359,295.918610 152.000259,295.989227 
z"/>
<path fill="#349ECD" opacity="1.000000" stroke="none" 
	d="
M211.467941,501.000000 
	C211.000000,432.975891 211.000000,364.951782 211.458313,296.355652 
	C217.611115,295.852295 223.305649,295.920929 228.999237,296.398499 
	C228.986420,310.652924 229.033386,324.498810 228.947784,338.343842 
	C228.840820,355.644623 228.492920,372.944672 228.492920,390.245056 
	C228.492920,407.545441 228.863098,424.845459 228.944260,442.146271 
	C229.036285,461.763855 228.987549,481.382050 229.000000,501.000000 
	C223.311966,501.000000 217.623917,501.000000 211.467941,501.000000 
z"/>
<path fill="#36A1CE" opacity="1.000000" stroke="none" 
	d="
M220.532394,1.000000 
	C220.999374,67.306160 220.998749,133.612320 220.534180,200.445114 
	C214.712326,200.926132 209.354401,200.880508 203.996490,200.834900 
	C203.997650,134.535706 203.998825,68.236511 204.000000,1.468657 
	C209.354935,1.000000 214.709854,1.000000 220.532394,1.000000 
z"/>
<path fill="#2C90C8" opacity="1.000000" stroke="none" 
	d="
M261.116852,258.035187 
	C260.744934,256.461487 260.114441,254.899673 260.041656,253.312271 
	C259.410370,239.541718 258.657349,225.770264 258.426422,211.990936 
	C258.332611,206.392715 259.916107,200.775253 259.926758,195.165024 
	C260.043457,133.689529 260.013184,72.213722 259.959778,10.738066 
	C259.957184,7.772117 259.368408,4.806678 259.026306,1.420501 
	C263.356903,1.000000 267.713806,1.000000 272.535339,1.468657 
	C273.000000,66.283142 273.013275,130.628998 272.957489,194.974777 
	C272.954926,197.928009 272.331696,200.880737 271.540100,203.901184 
	C267.822449,203.968689 264.562195,203.968689 261.321075,203.968689 
	C261.321075,208.713028 261.321075,212.775269 261.321075,217.449356 
	C267.416962,217.449356 273.197876,217.449356 278.949158,217.820282 
	C278.952820,225.145096 278.986084,232.098999 278.838867,239.347015 
	C269.696869,242.802460 264.789276,249.829865 261.116852,258.035187 
z"/>
<path fill="#3199CB" opacity="1.000000" stroke="none" 
	d="
M229.466125,501.000000 
	C228.987549,481.382050 229.036285,461.763855 228.944260,442.146271 
	C228.863098,424.845459 228.492920,407.545441 228.492920,390.245056 
	C228.492920,372.944672 228.840820,355.644623 228.947784,338.343842 
	C229.033386,324.498810 228.986420,310.652924 229.455444,296.297302 
	C234.564316,295.754395 239.216049,295.721558 243.867798,295.688751 
	C243.911865,327.168793 243.975739,358.648865 243.994812,390.128906 
	C244.017014,426.773499 244.000000,463.418091 244.000000,500.531342 
	C239.310745,501.000000 234.621490,501.000000 229.466125,501.000000 
z"/>
<path fill="#298DC6" opacity="1.000000" stroke="none" 
	d="
M271.997559,203.833710 
	C272.331696,200.880737 272.954926,197.928009 272.957489,194.974777 
	C273.013275,130.628998 273.000000,66.283142 273.000000,1.468657 
	C277.356903,1.000000 281.713806,1.000000 286.535339,1.000000 
	C286.999359,68.305595 286.998718,135.611191 286.535400,203.441528 
	C281.381012,203.922089 276.689270,203.877899 271.997559,203.833710 
z"/>
<path fill="#44B7D7" opacity="1.000000" stroke="none" 
	d="
M144.535355,1.000000 
	C144.999420,67.306129 144.998840,133.612259 144.537460,200.446426 
	C139.717026,200.962357 135.357391,200.950256 130.997742,200.938156 
	C130.998489,134.604538 130.999237,68.270927 131.000000,1.468657 
	C135.356903,1.000000 139.713806,1.000000 144.535355,1.000000 
z"/>
<path fill="#000000" opacity="1.000000" stroke="none" 
	d="
M392.070068,294.533325 
	C388.190002,294.995758 384.391479,294.995758 379.705841,294.995758 
	C379.705841,289.011505 379.842896,283.289795 379.621033,277.582062 
	C379.555817,275.903931 378.473511,274.265350 377.433685,272.675964 
	C370.579895,272.743286 364.149750,272.743286 356.987640,272.743286 
	C356.987640,279.844513 356.987640,286.903931 356.973083,294.424255 
	C353.177338,294.885162 349.396179,294.885162 344.993958,294.885162 
	C344.993958,285.397675 344.993958,276.171570 344.993958,266.945496 
	C344.993958,257.852386 344.993958,248.759277 344.993958,238.964767 
	C348.249420,238.964767 351.168823,238.964767 354.962006,239.004272 
	C356.222961,240.671707 356.901398,242.292068 356.944061,243.928970 
	C357.085297,249.350861 356.997345,254.778717 356.997345,260.209869 
	C361.420319,260.209869 365.207764,260.209869 368.995239,260.209869 
	C379.696686,261.220490 379.696716,261.220490 379.696808,250.822052 
	C379.696838,247.058762 379.696777,243.295486 379.696777,238.960541 
	C383.211426,238.960541 386.146790,238.960541 389.538055,238.897766 
	C390.731232,240.371658 392.096985,241.903259 392.109406,243.445740 
	C392.245209,260.319824 392.169678,277.195587 392.070068,294.533325 
z"/>
<path fill="#000000" opacity="1.000000" stroke="none" 
	d="
M243.900146,295.246521 
	C239.216049,295.721558 234.564316,295.754395 229.456360,295.888367 
	C223.305649,295.920929 217.611115,295.852295 211.458237,295.886292 
	C204.972290,295.919373 198.944687,295.849792 192.458694,295.884033 
	C185.305954,295.918182 178.611603,295.848572 171.458786,295.883545 
	C164.972382,295.918518 158.944443,295.848907 152.458389,295.884277 
	C146.305359,295.918610 140.610458,295.847961 134.457901,295.882935 
	C129.924606,295.988525 125.848984,295.988525 121.024582,295.988525 
	C121.024582,291.614777 121.024582,287.764618 121.256790,283.346069 
	C121.693695,282.615875 121.864227,282.423798 122.000618,282.201416 
	C125.033775,282.140137 128.066925,282.078888 132.009979,282.020386 
	C137.945282,281.970947 142.970703,281.918701 148.458862,281.945862 
	C155.280014,281.971771 161.638397,281.918213 167.996796,281.864655 
	C173.688416,281.914459 179.380035,281.964264 185.534256,281.939728 
	C193.353790,281.913696 200.710739,281.962036 208.993530,282.016815 
	C215.612640,281.970764 221.305878,281.918274 226.999115,281.865723 
	C231.358337,281.913879 235.717545,281.962036 240.536346,281.937805 
	C241.442795,281.935211 241.889633,282.005005 242.786667,282.292755 
	C243.411011,282.703979 243.609650,282.867554 243.832748,283.001434 
	C243.865982,286.935730 243.899231,290.870026 243.900146,295.246521 
z"/>
<path fill="#000101" opacity="1.000000" stroke="none" 
	d="
M261.065186,258.464172 
	C264.789276,249.829865 269.696869,242.802460 279.276062,239.340302 
	C286.594116,239.284042 293.294495,239.528580 300.346527,239.869659 
	C308.204834,242.783615 312.976044,248.525940 316.927795,255.144531 
	C317.039551,256.598633 317.151306,258.052734 317.302734,260.023254 
	C315.554688,260.023254 313.686493,260.023254 310.993530,260.030029 
	C307.107361,260.218506 305.031677,259.644989 302.873260,256.590057 
	C296.465973,247.521439 284.197723,248.652725 278.549316,254.298386 
	C270.950409,261.893616 270.997650,271.600281 278.418365,279.752045 
	C284.564087,286.503174 296.138794,285.611603 302.347229,277.900238 
	C304.849854,274.791779 307.369843,273.623535 310.992096,273.830170 
	C313.126892,273.936798 315.261688,274.043457 318.706055,274.215515 
	C316.370972,278.638336 314.328491,282.506927 312.120972,286.680420 
	C305.827545,292.134857 299.122772,295.941742 290.412506,296.140839 
	C280.561279,296.102661 272.419342,293.203094 266.295715,285.161438 
	C260.409424,277.038116 258.863800,268.319214 261.065186,258.464172 
z"/>
<path fill="#050F12" opacity="1.000000" stroke="none" 
	d="
M243.850662,282.748810 
	C243.609650,282.867554 243.411011,282.703979 243.121155,282.355591 
	C243.293167,282.299011 243.580872,282.397583 243.850662,282.748810 
z"/>
<path fill="#000000" opacity="1.000000" stroke="none" 
	d="
M130.779816,201.292511 
	C135.357391,200.950256 139.717026,200.962357 144.536530,200.904724 
	C151.401474,201.861847 157.806564,202.888687 164.598846,203.981995 
	C175.478592,210.339920 177.614029,225.940323 167.954132,236.036377 
	C161.721970,241.027481 154.869171,241.631622 147.555832,242.097321 
	C145.853363,242.028168 144.590225,242.028168 142.863770,242.028168 
	C142.863770,247.249908 142.863770,251.997726 142.863770,257.167267 
	C138.929062,257.167267 135.462875,257.167267 131.996689,257.167267 
	C131.475616,255.945129 130.505173,254.724472 130.501160,253.500626 
	C130.444473,236.216309 130.519089,218.931534 130.779816,201.292511 
M144.891876,230.980408 
	C146.879227,230.985809 148.879227,231.138840 150.851669,230.969971 
	C157.819580,230.373535 161.184113,226.855438 160.996780,220.527863 
	C160.830627,214.915558 157.754929,212.366943 150.680054,212.088943 
	C148.265121,211.994049 145.843307,212.073898 143.197250,212.073898 
	C143.197250,218.463165 143.197250,224.227310 143.115356,230.509323 
	C143.411499,230.620544 143.707642,230.731766 144.891876,230.980408 
z"/>
<path fill="#43B7D6" opacity="1.000000" stroke="none" 
	d="
M131.997498,257.625305 
	C135.462875,257.167267 138.929062,257.167267 142.863770,257.167267 
	C142.863770,251.997726 142.863770,247.249908 142.863770,242.028168 
	C144.590225,242.028168 145.853363,242.028168 147.557068,242.555313 
	C147.997116,256.010468 147.996613,268.938446 147.996124,281.866455 
	C142.970703,281.918701 137.945282,281.970947 132.458649,281.944275 
	C131.997711,273.938019 131.998001,266.010712 131.997498,257.625305 
z"/>
<path fill="#050F12" opacity="1.000000" stroke="none" 
	d="
M121.744614,282.159180 
	C121.864227,282.423798 121.693695,282.615875 121.329445,282.887024 
	C121.276131,282.703278 121.382370,282.410126 121.744614,282.159180 
z"/>
<path fill="#000000" opacity="1.000000" stroke="none" 
	d="
M271.540100,203.901199 
	C276.689270,203.877899 281.381012,203.922089 286.534515,203.899750 
	C292.686951,203.877060 298.377594,203.920944 304.531891,203.899124 
	C311.352875,203.876968 317.710236,203.920532 324.531738,203.898712 
	C330.686829,203.868912 336.377747,203.904495 342.532013,203.871811 
	C349.685394,203.847382 356.375488,203.891251 363.529449,203.868546 
	C370.434357,203.801971 376.875397,203.801971 383.658478,203.801971 
	C383.658478,208.368774 383.658478,212.412796 383.658478,217.266220 
	C379.402771,217.266220 375.160187,217.266220 370.001373,217.269012 
	C364.384155,217.330276 359.683228,217.388748 354.982269,217.447235 
	C348.959747,217.384827 342.937256,217.322388 336.454498,217.353973 
	C330.302643,217.385101 324.611053,217.322205 318.000000,217.263367 
	C311.386414,217.327393 305.692261,217.387375 299.537415,217.358002 
	C292.377411,217.328888 285.678101,217.389114 278.978760,217.449341 
	C273.197876,217.449356 267.416962,217.449356 261.321075,217.449356 
	C261.321075,212.775269 261.321075,208.713028 261.321075,203.968689 
	C264.562195,203.968689 267.822449,203.968689 271.540100,203.901199 
z"/>
<path fill="#2788C4" opacity="1.000000" stroke="none" 
	d="
M310.993896,273.377563 
	C307.369843,273.623535 304.849854,274.791779 302.347229,277.900238 
	C296.138794,285.611603 284.564087,286.503174 278.418365,279.752045 
	C270.997650,271.600281 270.950409,261.893616 278.549316,254.298386 
	C284.197723,248.652725 296.465973,247.521439 302.873260,256.590057 
	C305.031677,259.644989 307.107361,260.218506 310.580505,260.100861 
	C310.993408,264.418243 310.994537,268.671600 310.993896,273.377563 
z"/>
<path fill="#2483C3" opacity="1.000000" stroke="none" 
	d="
M299.998077,217.447357 
	C305.692261,217.387375 311.386414,217.327393 317.541077,217.356750 
	C318.000946,227.810120 318.037506,238.174454 317.966736,248.538025 
	C317.953461,250.479691 317.510864,252.418411 317.097107,254.751511 
	C312.976044,248.525940 308.204834,242.783615 300.346985,239.415833 
	C299.996552,231.726089 299.997314,224.586716 299.998077,217.447357 
z"/>
<path fill="#1A73BD" opacity="1.000000" stroke="none" 
	d="
M354.985657,217.886475 
	C359.683228,217.388748 364.384155,217.330276 369.544006,217.360748 
	C370.001862,228.979660 370.049500,240.509979 369.960724,252.039246 
	C369.941956,254.479660 369.424622,256.916229 369.066101,259.782227 
	C365.207764,260.209869 361.420319,260.209869 356.997345,260.209869 
	C356.997345,254.778717 357.085297,249.350861 356.944061,243.928970 
	C356.901398,242.292068 356.222961,240.671707 355.415710,238.939331 
	C354.993439,231.998489 354.991272,225.162109 354.985657,217.886475 
z"/>
<path fill="#40B1D4" opacity="1.000000" stroke="none" 
	d="
M148.458862,281.945862 
	C147.996613,268.938446 147.997116,256.010468 147.996399,242.624451 
	C154.869171,241.631622 161.721970,241.027481 167.646912,236.212982 
	C167.997086,251.096588 167.997711,266.020691 167.997559,281.404724 
	C161.638397,281.918213 155.280014,281.971771 148.458862,281.945862 
z"/>
<path fill="#000000" opacity="1.000000" stroke="none" 
	d="
M203.573059,200.904434 
	C209.354401,200.880508 214.712326,200.926132 220.533249,200.903442 
	C226.116364,200.835114 231.236481,200.835114 236.251755,200.835114 
	C238.402496,210.931183 237.783203,211.955368 228.972504,212.027832 
	C222.820175,212.027679 217.567291,212.027679 211.993225,212.027679 
	C211.993225,214.719788 212.188431,216.874634 211.951279,218.980774 
	C211.501968,222.971130 213.115982,224.381042 217.059814,224.063065 
	C221.020340,223.743713 225.018433,223.890533 229.000061,223.833038 
	C230.480957,223.937408 231.961868,224.041794 233.721222,224.165787 
	C233.721222,227.283539 233.721222,230.361343 233.721222,234.016281 
	C232.392548,234.016281 231.131851,234.016281 229.011154,234.016571 
	C226.433670,234.063873 224.716202,234.110901 222.541351,234.087494 
	C218.825485,234.017090 215.566986,234.017090 212.319763,234.017090 
	C212.319763,238.327103 212.319763,242.045425 212.319763,245.919342 
	C216.092987,245.919342 219.545990,245.919342 223.421524,246.004349 
	C225.562607,246.032654 227.281158,245.975952 228.999710,245.919266 
	C231.749908,246.047653 234.500107,246.176025 237.923187,246.335815 
	C237.923187,249.332428 237.923187,252.207291 237.712219,255.658691 
	C237.300446,256.421722 237.127396,256.631134 236.982071,256.863464 
	C233.953888,256.917999 230.925705,256.972534 226.984955,257.027740 
	C220.379303,257.074432 214.686234,257.120422 208.993164,257.166443 
	C206.221390,257.166443 203.449600,257.166443 200.138092,257.166443 
	C200.138092,250.993820 200.137939,245.415482 200.138138,239.837143 
	C200.138535,228.091095 200.171814,216.344879 200.110687,204.599152 
	C200.099136,202.379333 200.190536,200.558395 203.573059,200.904434 
z"/>
<path fill="#349DCD" opacity="1.000000" stroke="none" 
	d="
M208.994888,257.624481 
	C214.686234,257.120422 220.379303,257.074432 226.535797,257.097626 
	C226.999359,265.093170 226.999481,273.019501 226.999359,281.405823 
	C221.305878,281.918274 215.612640,281.970764 209.456879,281.944458 
	C208.995117,273.937927 208.995865,266.010223 208.994888,257.624481 
z"/>
<path fill="#339CCC" opacity="1.000000" stroke="none" 
	d="
M229.000031,223.385529 
	C225.018433,223.890533 221.020340,223.743713 217.059814,224.063065 
	C213.115982,224.381042 211.501968,222.971130 211.951279,218.980774 
	C212.188431,216.874634 211.993225,214.719788 211.993225,212.027679 
	C217.567291,212.027679 222.820175,212.027679 228.536591,212.097305 
	C229.000107,215.757278 229.000061,219.347641 229.000031,223.385529 
z"/>
<path fill="#339CCC" opacity="1.000000" stroke="none" 
	d="
M228.999817,245.466156 
	C227.281158,245.975952 225.562607,246.032654 223.421814,245.551300 
	C222.999283,241.394806 222.999008,237.776352 222.998718,234.157913 
	C224.716202,234.110901 226.433670,234.063873 228.575592,234.087738 
	C229.000000,237.776749 228.999969,241.394913 228.999817,245.466156 
z"/>
<path fill="#091C25" opacity="1.000000" stroke="none" 
	d="
M237.247803,256.878357 
	C237.127396,256.631134 237.300446,256.421722 237.662613,256.110107 
	C237.720505,256.287720 237.617020,256.590485 237.247803,256.878357 
z"/>
<path fill="#2789C5" opacity="1.000000" stroke="none" 
	d="
M299.537415,217.358002 
	C299.997314,224.586716 299.996552,231.726089 299.995361,239.319275 
	C293.294495,239.528580 286.594116,239.284042 279.456512,239.046204 
	C278.986084,232.098999 278.952820,225.145096 278.949158,217.820267 
	C285.678101,217.389114 292.377411,217.328888 299.537415,217.358002 
z"/>
<path fill="#40B2D5" opacity="1.000000" stroke="none" 
	d="
M143.197250,229.991470 
	C143.197250,224.227310 143.197250,218.463165 143.197250,212.073898 
	C145.843307,212.073898 148.265121,211.994049 150.680054,212.088943 
	C157.754929,212.366943 160.830627,214.915558 160.996780,220.527863 
	C161.184113,226.855438 157.819580,230.373535 150.851669,230.969971 
	C148.879227,231.138840 146.879227,230.985809 144.336792,230.748566 
	C143.619019,230.305878 143.424210,230.130798 143.197250,229.991470 
z"/>
<path fill="#3A9EBB" opacity="1.000000" stroke="none" 
	d="
M143.156311,230.250397 
	C143.424210,230.130798 143.619019,230.305878 143.892746,230.679840 
	C143.707642,230.731766 143.411499,230.620544 143.156311,230.250397 
z"/>
<path fill="#349ECD" opacity="1.000000" stroke="none" 
	d="
M222.541351,234.087494 
	C222.999008,237.776352 222.999283,241.394806 222.999268,245.466293 
	C219.545990,245.919342 216.092987,245.919342 212.319763,245.919342 
	C212.319763,242.045425 212.319763,238.327103 212.319763,234.017090 
	C215.566986,234.017090 218.825485,234.017090 222.541351,234.087494 
z"/>
</svg>